<svg width="27" height="25" viewBox="0 0 27 25" fill="none" xmlns="http://www.w3.org/2000/svg">
<path d="M24.6489 1.32712C23.7297 0.441972 22.6237 0 21.3295 0H5.67058C4.37643 0 3.27039 0.441972 2.35119 1.32712C1.43199 2.21228 0.973022 3.27736 0.973022 4.52357V19.6026C0.973022 20.8488 1.43199 21.9138 2.35119 22.799C3.27039 23.6842 4.37643 24.1261 5.67058 24.1261H9.32479C9.56305 24.1261 9.74238 24.1177 9.86277 24.102C10.0028 24.0749 10.1293 24.003 10.2214 23.8979C10.3405 23.7771 10.4007 23.602 10.4007 23.3726L10.392 22.3039C10.3869 21.6228 10.3844 21.0842 10.3844 20.6857L10.0082 20.7485C9.76997 20.7908 9.469 20.8089 9.10408 20.8041C8.72372 20.7973 8.34458 20.7606 7.97045 20.6942C7.57218 20.6234 7.19726 20.4619 6.87695 20.2232C6.54149 19.9789 6.29128 19.6419 6.15965 19.2572L5.99662 18.8949C5.85922 18.6091 5.6866 18.3403 5.48248 18.0943C5.24923 17.8009 5.01222 17.6028 4.7727 17.4978L4.65984 17.4193C4.58114 17.365 4.50956 17.3017 4.44666 17.2309C4.38658 17.1651 4.33712 17.091 4.29994 17.0111C4.26733 16.9374 4.29492 16.8771 4.38145 16.83C4.46923 16.7817 4.62598 16.7587 4.85547 16.7587L5.18151 16.807C5.39846 16.8481 5.66807 16.9737 5.98785 17.1826C6.31146 17.395 6.58178 17.6743 6.77913 18.0001C7.02994 18.4288 7.3309 18.756 7.68453 18.9819C8.03817 19.2065 8.39431 19.32 8.75296 19.32C9.11161 19.32 9.42135 19.2934 9.68344 19.2415C9.93689 19.191 10.1832 19.1116 10.417 19.0048C10.5149 18.3044 10.7807 17.7634 11.2159 17.3867C10.652 17.3334 10.0932 17.239 9.54424 17.1041C9.00852 16.9624 8.4933 16.7567 8.01058 16.4918C7.50552 16.2271 7.05941 15.8693 6.69762 15.4388C6.35026 15.0198 6.06434 14.4704 5.84113 13.7905C5.61916 13.1094 5.50756 12.3233 5.50756 11.4333C5.50756 10.1666 5.93643 9.0882 6.79543 8.19701C6.39415 7.24545 6.43177 6.17674 6.90955 4.99453C7.22556 4.89913 7.69331 4.97038 8.3128 5.20585C8.93228 5.44133 9.38624 5.64299 9.67466 5.80964C9.96309 5.9787 10.1938 6.11999 10.3681 6.23471C11.3876 5.9615 12.4412 5.82416 13.4994 5.82655C14.5766 5.82655 15.62 5.963 16.632 6.23471L17.2514 5.85794C17.728 5.58244 18.2306 5.35115 18.7525 5.16721C19.3294 4.95709 19.7683 4.90034 20.0742 4.99453C20.5633 6.17795 20.6059 7.24545 20.2034 8.19822C21.0624 9.0882 21.4925 10.1666 21.4925 11.4345C21.4925 12.3245 21.3809 13.113 21.1577 13.7977C20.9358 14.4836 20.6473 15.0331 20.2937 15.4473C19.9255 15.8722 19.4776 16.2266 18.9732 16.4918C18.4465 16.7744 17.9349 16.9785 17.4396 17.1041C16.8906 17.2394 16.3318 17.3343 15.7679 17.3879C16.3323 17.8588 16.6157 18.6015 16.6157 19.617V23.3726C16.6157 23.5501 16.642 23.6938 16.6972 23.8037C16.7225 23.8566 16.7587 23.9041 16.8035 23.9433C16.8483 23.9826 16.9009 24.0127 16.958 24.0319C17.0784 24.073 17.1837 24.0996 17.2765 24.1092C17.3693 24.1213 17.5023 24.1249 17.6753 24.1249H21.3295C22.6237 24.1249 23.7297 23.6829 24.6489 22.7978C25.5668 21.9139 26.0271 20.8476 26.0271 19.6013V4.52357C26.0271 3.27736 25.5668 2.21228 24.6477 1.32712H24.6489Z" fill="#DC3D4B"/>
</svg>
