<svg width="25" height="25" viewBox="0 0 25 25" fill="none" xmlns="http://www.w3.org/2000/svg">
<path d="M22.187 0H1.93914C0.868541 0 0 0.868541 0 1.93914V22.187C0 23.2576 0.868541 24.1261 1.93914 24.1261H22.187C23.2576 24.1261 24.1261 23.2576 24.1261 22.187V1.93914C24.1261 0.868541 23.2576 0 22.187 0ZM22.187 22.196C8.68239 22.193 1.93009 22.19 1.93009 22.187C1.93311 8.68239 1.93612 1.93009 1.93914 1.93009C15.4437 1.93311 22.196 1.93612 22.196 1.93914C22.193 15.4437 22.19 22.196 22.187 22.196ZM3.5767 9.04428H7.15641V20.5585H3.5767V9.04428ZM5.36806 7.47005C6.51104 7.47005 7.44291 6.5412 7.44291 5.3952C7.44291 5.12273 7.38924 4.85293 7.28497 4.6012C7.1807 4.34946 7.02787 4.12073 6.8352 3.92807C6.64253 3.7354 6.4138 3.58257 6.16207 3.4783C5.91034 3.37403 5.64054 3.32036 5.36806 3.32036C5.09559 3.32036 4.82579 3.37403 4.57405 3.4783C4.32232 3.58257 4.09359 3.7354 3.90092 3.92807C3.70826 4.12073 3.55543 4.34946 3.45115 4.6012C3.34688 4.85293 3.29322 5.12273 3.29322 5.3952C3.2902 6.5412 4.21906 7.47005 5.36806 7.47005ZM12.9768 14.8617C12.9768 13.3598 13.2633 11.9062 15.1241 11.9062C16.9577 11.9062 16.9848 13.6222 16.9848 14.9582V20.5585H20.5615V14.2435C20.5615 11.1433 19.892 8.75778 16.2701 8.75778C14.53 8.75778 13.3629 9.71378 12.8834 10.6185H12.8351V9.04428H9.40014V20.5585H12.9768V14.8617Z" fill="#DC3D4B"/>
</svg>
