<svg width="25" height="25" viewBox="0 0 25 25" fill="none" xmlns="http://www.w3.org/2000/svg">
<path d="M22.4151 0H3.45884C2.03174 0 0.873901 1.15784 0.873901 2.58494V21.5412C0.873901 22.9683 2.03174 24.1261 3.45884 24.1261H22.4151C23.8422 24.1261 25 22.9683 25 21.5412V2.58494C25 1.15784 23.8422 0 22.4151 0ZM19.7817 8.55185C19.7924 8.70264 19.7924 8.85881 19.7924 9.0096C19.7924 13.6787 16.2381 19.0586 9.74348 19.0586C7.74015 19.0586 5.88223 18.4769 4.32049 17.4753C4.60591 17.5076 4.88056 17.5184 5.17137 17.5184C6.82465 17.5184 8.34331 16.9583 9.555 16.0105C8.00403 15.9782 6.70079 14.9604 6.25381 13.5602C6.79773 13.641 7.28779 13.641 7.84786 13.4956C6.23227 13.167 5.02058 11.7453 5.02058 10.0274V9.98434C5.4891 10.2482 6.0384 10.4098 6.61463 10.4313C6.13018 10.1091 5.73304 9.67192 5.45866 9.15886C5.18427 8.64579 5.04117 8.07277 5.04212 7.49095C5.04212 6.83394 5.21445 6.23079 5.52141 5.70841C7.26086 7.85176 9.87273 9.25194 12.8023 9.40273C12.3015 7.00627 14.0948 5.06218 16.2489 5.06218C17.2667 5.06218 18.1822 5.48762 18.8285 6.17693C19.6255 6.02615 20.3902 5.72995 21.0688 5.32606C20.8049 6.14462 20.2502 6.83394 19.5178 7.27015C20.2287 7.19476 20.918 6.9955 21.5534 6.72085C21.0741 7.42632 20.471 8.05102 19.7817 8.55185Z" fill="#DC3D4B"/>
</svg>
